<svg width="24" height="24" viewBox="0 0 24 24" fill="none" xmlns="http://www.w3.org/2000/svg">
<path d="M9.02 2.84024L3.63 7.04024C3.15049 7.45684 2.75923 7.96522 2.47928 8.53541C2.19934 9.1056 2.03638 9.72607 2 10.3602L2 17.7702C2.00131 18.8873 2.44497 19.9584 3.23393 20.7492C4.02289 21.5401 5.09293 21.9863 6.21 21.9902H17.79C18.9055 21.9868 19.9743 21.5422 20.7631 20.7534C21.5519 19.9646 21.9966 18.8957 22 17.7802V10.5002C21.9623 9.83031 21.7822 9.17613 21.4718 8.58124C21.1614 7.98636 20.7279 7.46444 20.2 7.05024L14.02 2.71724C13.2685 2.23916 12.3917 1.99557 11.5013 2.01747C10.6109 2.03938 9.7471 2.32579 9.02 2.84024V2.84024Z" stroke="#61BD75" stroke-width="1.5" stroke-linecap="round" stroke-linejoin="round"/>
<path d="M12 17.9902V14.9902" stroke="#F69842" stroke-width="1.5" stroke-linecap="round" stroke-linejoin="round"/>
</svg>
