<svg width="24" height="24" viewBox="0 0 24 24" fill="none" xmlns="http://www.w3.org/2000/svg">
<path d="M8 2V5" stroke="#939597" stroke-width="1.5" stroke-linecap="round" stroke-linejoin="round"/>
<path d="M16 2V5" stroke="#939597" stroke-width="1.5" stroke-linecap="round" stroke-linejoin="round"/>
<path opacity="0.4" d="M3.5 9.08984H20.5" stroke="#939597" stroke-width="1.5" stroke-linecap="round" stroke-linejoin="round"/>
<path d="M22 19C22.0014 19.7272 21.8006 20.4404 21.42 21.06C21.0675 21.6525 20.5667 22.143 19.967 22.4831C19.3674 22.8233 18.6894 23.0014 18 23C17.0295 23.0051 16.092 22.6486 15.37 22C15.0547 21.7343 14.7875 21.4163 14.58 21.06C14.1994 20.4404 13.9986 19.7272 14 19C14 17.9391 14.4214 16.9217 15.1716 16.1716C15.9217 15.4214 16.9391 15 18 15C19.0609 15 20.0783 15.4214 20.8284 16.1716C21.5786 16.9217 22 17.9391 22 19V19Z" stroke="#939597" stroke-width="1.5" stroke-linecap="round" stroke-linejoin="round"/>
<path d="M16.4399 19L17.4299 19.99L19.5599 18.02" stroke="#939597" stroke-width="1.5" stroke-linecap="round" stroke-linejoin="round"/>
<path d="M21 8.5V16.36C20.4629 15.751 19.7532 15.3199 18.9652 15.1239C18.1772 14.928 17.3482 14.9765 16.5885 15.2631C15.8287 15.5496 15.1742 16.0606 14.7118 16.7281C14.2494 17.3956 14.0012 18.188 14 19C13.9986 19.7272 14.1994 20.4404 14.58 21.06C14.7874 21.4163 15.0547 21.7343 15.37 22H8C4.5 22 3 20 3 17V8.5C3 5.5 4.5 3.5 8 3.5H16C19.5 3.5 21 5.5 21 8.5Z" stroke="#939597" stroke-width="1.5" stroke-linecap="round" stroke-linejoin="round"/>
<path opacity="0.4" d="M11.9961 13.7002H12.0011" stroke="#939597" stroke-width="2" stroke-linecap="round" stroke-linejoin="round"/>
<path opacity="0.4" d="M8.29492 13.7002H8.29992" stroke="#939597" stroke-width="2" stroke-linecap="round" stroke-linejoin="round"/>
<path opacity="0.4" d="M8.29395 16.7002H8.30295" stroke="#939597" stroke-width="2" stroke-linecap="round" stroke-linejoin="round"/>
</svg>
