<svg width="24" height="24" viewBox="0 0 24 24" fill="none" xmlns="http://www.w3.org/2000/svg">
<path opacity="0.4" d="M12.16 10.8698C12.0503 10.8598 11.9398 10.8598 11.83 10.8698C10.6663 10.8266 9.56591 10.3284 8.76567 9.48227C7.96542 8.63616 7.5292 7.50979 7.55082 6.3454C7.57243 5.181 8.05017 4.0716 8.88127 3.25578C9.71237 2.43997 10.8305 1.98291 11.995 1.98291C13.1596 1.98291 14.2777 2.43997 15.1088 3.25578C15.9399 4.0716 16.4177 5.181 16.4393 6.3454C16.4609 7.50979 16.0247 8.63616 15.2244 9.48227C14.4242 10.3284 13.3238 10.8266 12.16 10.8698Z" stroke="#939597" stroke-width="1.5" stroke-linecap="round" stroke-linejoin="round"/>
<path d="M7.15997 14.561C4.73997 16.181 4.73997 18.821 7.15997 20.431C8.67323 21.3341 10.4027 21.811 12.165 21.811C13.9273 21.811 15.6567 21.3341 17.17 20.431C19.59 18.811 19.59 16.171 17.17 14.561C15.6551 13.6626 13.9262 13.1885 12.165 13.1885C10.4037 13.1885 8.67488 13.6626 7.15997 14.561V14.561Z" stroke="#939597" stroke-width="1.5" stroke-linecap="round" stroke-linejoin="round"/>
</svg>
