<svg width="24" height="24" viewBox="0 0 24 24" fill="none" xmlns="http://www.w3.org/2000/svg">
<path d="M8.96997 22H14.97C19.97 22 21.97 20 21.97 15V9C21.97 4 19.97 2 14.97 2H8.96997C3.96997 2 1.96997 4 1.96997 9V15C1.96997 20 3.96997 22 8.96997 22Z" stroke="#939597" stroke-width="1.5" stroke-linecap="round" stroke-linejoin="round"/>
<path opacity="0.4" d="M1.96997 12.7001L7.96997 12.6801C8.36804 12.7004 8.7529 12.8296 9.08263 13.0535C9.41236 13.2775 9.67432 13.5876 9.83997 13.9501L10.98 16.8301C11.24 17.4801 11.65 17.4801 11.91 16.8301L14.2 11.0201C14.42 10.4601 14.83 10.4401 15.11 10.9701L16.15 12.9401C16.3352 13.2495 16.5933 13.5088 16.9019 13.6953C17.2104 13.8818 17.56 13.9899 17.92 14.0101H21.98" stroke="#939597" stroke-width="1.5" stroke-linecap="round" stroke-linejoin="round"/>
</svg>
